<svg width="142" height="21" viewBox="0 0 142 21" fill="none" xmlns="http://www.w3.org/2000/svg">
<path d="M8.02441 10.9883L9.16113 11.2754C8.92285 12.209 8.49316 12.9219 7.87207 13.4141C7.25488 13.9023 6.49902 14.1465 5.60449 14.1465C4.67871 14.1465 3.9248 13.959 3.34277 13.584C2.76465 13.2051 2.32324 12.6582 2.01855 11.9434C1.71777 11.2285 1.56738 10.4609 1.56738 9.64062C1.56738 8.74609 1.7373 7.9668 2.07715 7.30273C2.4209 6.63477 2.90723 6.12891 3.53613 5.78516C4.16895 5.4375 4.86426 5.26367 5.62207 5.26367C6.48145 5.26367 7.2041 5.48242 7.79004 5.91992C8.37598 6.35742 8.78418 6.97266 9.01465 7.76562L7.89551 8.0293C7.69629 7.4043 7.40723 6.94922 7.02832 6.66406C6.64941 6.37891 6.17285 6.23633 5.59863 6.23633C4.93848 6.23633 4.38574 6.39453 3.94043 6.71094C3.49902 7.02734 3.18848 7.45312 3.00879 7.98828C2.8291 8.51953 2.73926 9.06836 2.73926 9.63477C2.73926 10.3652 2.84473 11.0039 3.05566 11.5508C3.27051 12.0938 3.60254 12.5 4.05176 12.7695C4.50098 13.0391 4.9873 13.1738 5.51074 13.1738C6.14746 13.1738 6.68652 12.9902 7.12793 12.623C7.56934 12.2559 7.86816 11.7109 8.02441 10.9883ZM11.2646 7.77734H15.6006V13.1328H16.2744V15.7637H15.4072V14H10.5088V15.7637H9.6416V13.1328H10.1982C10.9404 12.125 11.2959 10.3398 11.2646 7.77734ZM12.1436 8.65039C12.0654 10.6699 11.7529 12.1641 11.2061 13.1328H14.5518V8.65039H12.1436ZM21.7002 11.9961L22.79 12.1309C22.6182 12.7676 22.2998 13.2617 21.835 13.6133C21.3701 13.9648 20.7764 14.1406 20.0537 14.1406C19.1436 14.1406 18.4209 13.8613 17.8857 13.3027C17.3545 12.7402 17.0889 11.9531 17.0889 10.9414C17.0889 9.89453 17.3584 9.08203 17.8975 8.50391C18.4365 7.92578 19.1357 7.63672 19.9951 7.63672C20.8271 7.63672 21.5068 7.91992 22.0342 8.48633C22.5615 9.05273 22.8252 9.84961 22.8252 10.877C22.8252 10.9395 22.8232 11.0332 22.8193 11.1582H18.1787C18.2178 11.8418 18.4111 12.3652 18.7588 12.7285C19.1064 13.0918 19.54 13.2734 20.0596 13.2734C20.4463 13.2734 20.7764 13.1719 21.0498 12.9688C21.3232 12.7656 21.54 12.4414 21.7002 11.9961ZM18.2373 10.291H21.7119C21.665 9.76758 21.5322 9.375 21.3135 9.11328C20.9775 8.70703 20.542 8.50391 20.0068 8.50391C19.5225 8.50391 19.1143 8.66602 18.7822 8.99023C18.4541 9.31445 18.2725 9.74805 18.2373 10.291ZM24.2373 7.77734H29.1357V14H28.0869V8.65039H25.292V11.75C25.292 12.4727 25.2686 12.9492 25.2217 13.1797C25.1748 13.4102 25.0459 13.6113 24.835 13.7832C24.624 13.9551 24.3193 14.041 23.9209 14.041C23.6748 14.041 23.3916 14.0254 23.0713 13.9941V13.1152H23.5342C23.7529 13.1152 23.9092 13.0938 24.0029 13.0508C24.0967 13.0039 24.1592 12.9316 24.1904 12.834C24.2217 12.7363 24.2373 12.418 24.2373 11.8789V7.77734ZM34.79 13.2324C34.3994 13.5645 34.0225 13.7988 33.6592 13.9355C33.2998 14.0723 32.9131 14.1406 32.499 14.1406C31.8154 14.1406 31.29 13.9746 30.9229 13.6426C30.5557 13.3066 30.3721 12.8789 30.3721 12.3594C30.3721 12.0547 30.4404 11.7773 30.5771 11.5273C30.7178 11.2734 30.8994 11.0703 31.1221 10.918C31.3486 10.7656 31.6025 10.6504 31.8838 10.5723C32.0908 10.5176 32.4033 10.4648 32.8213 10.4141C33.6729 10.3125 34.2998 10.1914 34.7021 10.0508C34.7061 9.90625 34.708 9.81445 34.708 9.77539C34.708 9.3457 34.6084 9.04297 34.4092 8.86719C34.1396 8.62891 33.7393 8.50977 33.208 8.50977C32.7119 8.50977 32.3447 8.59766 32.1064 8.77344C31.8721 8.94531 31.6982 9.25195 31.585 9.69336L30.5537 9.55273C30.6475 9.11133 30.8018 8.75586 31.0166 8.48633C31.2314 8.21289 31.542 8.00391 31.9482 7.85938C32.3545 7.71094 32.8252 7.63672 33.3604 7.63672C33.8916 7.63672 34.3232 7.69922 34.6553 7.82422C34.9873 7.94922 35.2314 8.10742 35.3877 8.29883C35.5439 8.48633 35.6533 8.72461 35.7158 9.01367C35.751 9.19336 35.7686 9.51758 35.7686 9.98633V11.3926C35.7686 12.373 35.79 12.9941 35.833 13.2559C35.8799 13.5137 35.9697 13.7617 36.1025 14H35.001C34.8916 13.7812 34.8213 13.5254 34.79 13.2324ZM34.7021 10.877C34.3193 11.0332 33.7451 11.166 32.9795 11.2754C32.5459 11.3379 32.2393 11.4082 32.0596 11.4863C31.8799 11.5645 31.7412 11.6797 31.6436 11.832C31.5459 11.9805 31.4971 12.1465 31.4971 12.3301C31.4971 12.6113 31.6025 12.8457 31.8135 13.0332C32.0283 13.2207 32.3408 13.3145 32.751 13.3145C33.1572 13.3145 33.5186 13.2266 33.835 13.0508C34.1514 12.8711 34.3838 12.627 34.5322 12.3184C34.6455 12.0801 34.7021 11.7285 34.7021 11.2637V10.877ZM37.415 7.77734H38.4697V10.3672H41.3936V7.77734H42.4482V14H41.3936V11.2402H38.4697V14H37.415V7.77734ZM43.6494 10.8887C43.6494 9.73633 43.9697 8.88281 44.6104 8.32812C45.1455 7.86719 45.7979 7.63672 46.5674 7.63672C47.4229 7.63672 48.1221 7.91797 48.665 8.48047C49.208 9.03906 49.4795 9.8125 49.4795 10.8008C49.4795 11.6016 49.3584 12.2324 49.1162 12.6934C48.8779 13.1504 48.5283 13.5059 48.0674 13.7598C47.6104 14.0137 47.1104 14.1406 46.5674 14.1406C45.6963 14.1406 44.9912 13.8613 44.4521 13.3027C43.917 12.7441 43.6494 11.9395 43.6494 10.8887ZM44.7334 10.8887C44.7334 11.6855 44.9072 12.2832 45.2549 12.6816C45.6025 13.0762 46.04 13.2734 46.5674 13.2734C47.0908 13.2734 47.5264 13.0742 47.874 12.6758C48.2217 12.2773 48.3955 11.6699 48.3955 10.8535C48.3955 10.084 48.2197 9.50195 47.8682 9.10742C47.5205 8.70898 47.0869 8.50977 46.5674 8.50977C46.04 8.50977 45.6025 8.70703 45.2549 9.10156C44.9072 9.49609 44.7334 10.0918 44.7334 10.8887ZM54.0674 7.77734H56.499C57.0967 7.77734 57.54 7.82812 57.8291 7.92969C58.1221 8.02734 58.3721 8.20898 58.5791 8.47461C58.79 8.74023 58.8955 9.05859 58.8955 9.42969C58.8955 9.72656 58.833 9.98633 58.708 10.209C58.5869 10.4277 58.4033 10.6113 58.1572 10.7598C58.4502 10.8574 58.6924 11.041 58.8838 11.3105C59.0791 11.5762 59.1768 11.8926 59.1768 12.2598C59.1377 12.8496 58.9268 13.2871 58.5439 13.5723C58.1611 13.8574 57.6045 14 56.874 14H54.0674V7.77734ZM55.1221 10.3965H56.2471C56.6963 10.3965 57.0049 10.373 57.1729 10.3262C57.3408 10.2793 57.4912 10.1855 57.624 10.0449C57.7568 9.90039 57.8232 9.72852 57.8232 9.5293C57.8232 9.20117 57.7061 8.97266 57.4717 8.84375C57.2412 8.71484 56.8447 8.65039 56.2822 8.65039H55.1221V10.3965ZM55.1221 13.1328H56.5107C57.1084 13.1328 57.5186 13.0645 57.7412 12.9277C57.9639 12.7871 58.0811 12.5469 58.0928 12.207C58.0928 12.0078 58.0283 11.8242 57.8994 11.6562C57.7705 11.4844 57.6025 11.377 57.3955 11.334C57.1885 11.2871 56.8564 11.2637 56.3994 11.2637H55.1221V13.1328Z" fill="#6F747E"/>
<g clip-path="url(#clip0_42_154)">
<rect x="68.2861" width="19.9999" height="19.9999" rx="5.71425" fill="#622BFF"/>
<path fill-rule="evenodd" clip-rule="evenodd" d="M76.8573 7.43451C76.8573 5.95864 78.0538 4.76221 79.5296 4.76221H80.6668V6.66696H79.5296C79.1057 6.66696 78.7621 7.0106 78.7621 7.43451C78.7621 8.44452 78.323 9.36606 77.612 10.0003C78.323 10.6345 78.7621 11.556 78.7621 12.566C78.7621 12.9899 79.1057 13.3336 79.5296 13.3336H80.6668V15.2383H79.5296C78.0538 15.2383 76.8573 14.0419 76.8573 12.566C76.8573 11.8212 76.3217 11.1843 75.5879 11.0567L74.9526 10.9462V9.05429L75.5879 8.94382C76.3217 8.8162 76.8573 8.17932 76.8573 7.43451Z" fill="white"/>
</g>
<path d="M94.582 12.3701V12.5279C94.582 13.5868 95.0622 14.4319 96.0224 15.0633C96.9892 15.6946 98.321 16.0103 100.018 16.0103C101.721 16.0103 103.033 15.6946 103.954 15.0633C104.875 14.4253 105.335 13.6065 105.335 12.6068C105.335 11.7321 104.977 11.035 104.26 10.5154C103.543 9.98925 102.468 9.61766 101.034 9.40062C99.6067 9.18359 98.6827 8.98957 98.2618 8.81858C97.8409 8.64758 97.6304 8.40753 97.6304 8.09842C97.6304 7.78273 97.8277 7.5361 98.2223 7.35852C98.6169 7.17437 99.2417 7.0823 100.097 7.0823C100.945 7.0823 101.583 7.20068 102.011 7.43745C102.438 7.67421 102.652 8.01292 102.652 8.45356V8.68046H105.197V8.43383C105.197 7.4802 104.737 6.67454 103.816 6.01686C102.895 5.35918 101.655 5.03034 100.097 5.03034C98.538 5.03034 97.3114 5.33616 96.417 5.9478C95.5225 6.55287 95.0753 7.32564 95.0753 8.26612C95.0753 9.07507 95.414 9.74919 96.0914 10.2885C96.7688 10.8212 97.8244 11.1961 99.2582 11.4131C100.685 11.6302 101.623 11.8176 102.07 11.9754C102.524 12.1333 102.75 12.3996 102.75 12.7745C102.75 13.1494 102.52 13.4421 102.06 13.6525C101.599 13.863 100.919 13.9682 100.018 13.9682C99.1233 13.9682 98.4196 13.8663 97.9066 13.6624C97.3936 13.4585 97.1371 13.1165 97.1371 12.6364V12.3701H94.582ZM107.298 15.7144H109.863V9.27237C110.192 8.71992 110.626 8.26612 111.165 7.91098C111.705 7.55583 112.303 7.37826 112.961 7.37826C113.737 7.37826 114.362 7.592 114.835 8.01949C115.309 8.44041 115.552 9.14413 115.565 10.1306V15.7144H118.12V9.27237C118.443 8.71992 118.89 8.26612 119.462 7.91098C120.034 7.55583 120.653 7.37826 121.317 7.37826C122.086 7.37826 122.691 7.592 123.132 8.01949C123.579 8.44041 123.809 9.14084 123.823 10.1208V15.7144H126.387V10.1701C126.387 8.36149 125.99 7.06915 125.194 6.29308C124.405 5.51702 123.392 5.12899 122.155 5.12899C121.261 5.12899 120.396 5.30327 119.561 5.65184C118.725 5.99384 118.068 6.50683 117.588 7.19082H117.578C117.275 6.51998 116.792 6.01028 116.128 5.66171C115.463 5.30656 114.707 5.12899 113.859 5.12899C113.063 5.12899 112.31 5.2671 111.6 5.54333C110.896 5.81955 110.304 6.26677 109.824 6.88499H109.804L109.715 5.33616H107.298V15.7144ZM128.765 18.3878C129.35 18.8877 130.113 19.2823 131.054 19.5717C132.001 19.8676 132.994 20.0156 134.033 20.0156C135.73 20.0156 137.167 19.5848 138.344 18.7232C139.521 17.8683 140.11 16.6351 140.11 15.0238V5.33616H137.693L137.604 6.69756H137.584C137.269 6.24376 136.753 5.87217 136.036 5.58279C135.319 5.28683 134.52 5.13885 133.638 5.13885C132.034 5.13885 130.728 5.62882 129.722 6.60877C128.722 7.58871 128.222 8.84159 128.222 10.3674V10.6831C128.222 12.2023 128.722 13.4552 129.722 14.4417C130.722 15.4217 132.024 15.9117 133.629 15.9117C134.516 15.9117 135.299 15.7867 135.976 15.5368C136.654 15.2869 137.18 14.935 137.555 14.4812V15.0337C137.555 15.9215 137.206 16.6055 136.509 17.0856C135.812 17.5723 134.957 17.8156 133.944 17.8156C133.096 17.8156 132.316 17.6907 131.606 17.4408C130.902 17.1974 130.366 16.9048 129.998 16.5628L128.765 18.3878ZM130.847 10.7028V10.3378C130.847 9.48941 131.143 8.7824 131.734 8.2168C132.333 7.65119 133.214 7.36839 134.378 7.36839C135.115 7.36839 135.766 7.51637 136.332 7.81232C136.897 8.1017 137.305 8.52262 137.555 9.07507V11.9754C137.318 12.4292 136.914 12.8271 136.341 13.1691C135.776 13.5111 135.121 13.6821 134.378 13.6821C133.221 13.6821 132.343 13.3993 131.744 12.8337C131.146 12.2615 130.847 11.5512 130.847 10.7028Z" fill="#212121"/>
<defs>
<clipPath id="clip0_42_154">
<rect width="19.9999" height="19.9999" fill="white" transform="translate(68.2861)"/>
</clipPath>
</defs>
</svg>
