<svg width="456" height="71" viewBox="0 0 456 71" fill="none" xmlns="http://www.w3.org/2000/svg">
<g clip-path="url(#clip0_36_206)">
<path fill-rule="evenodd" clip-rule="evenodd" d="M34.1938 54.9774C26.483 55.2779 20.2742 48.0677 14.9668 41.158C14.8666 40.9577 13.8652 39.4556 14.0655 39.055C16.0683 32.9464 17.8709 31.244 19.7735 26.6375C21.1755 23.5331 28.7862 16.4231 32.0909 16.8237V17.1241C27.3843 21.0296 32.892 19.7278 35.9964 19.2271C42.7058 18.7264 48.6142 19.1269 54.8229 22.6319C56.1247 22.3315 59.2291 26.9379 59.129 27.2384C58.6283 27.7391 55.4237 26.3371 55.2235 27.4386C56.0246 29.141 56.7256 30.4429 57.6269 32.1453C59.9301 38.2539 59.7298 42.6601 56.5253 48.268C56.325 48.5684 55.624 49.8702 55.3236 49.5698C54.5225 48.7687 55.1233 46.9661 54.8229 46.3653C54.6226 45.9647 54.8229 46.0649 54.5225 46.2652C52.2192 48.0677 49.6156 49.67 47.0119 51.1721C43.0063 53.275 38.6001 54.9774 34.1938 54.9774ZM48.1135 70.5994C49.4153 68.5966 54.4223 62.1876 50.8173 61.5867C49.0147 61.3865 44.5084 62.6883 40.3024 63.189C31.3899 64.2905 21.0754 63.7898 12.7637 59.8843C12.6635 59.7842 12.6635 59.7842 12.7637 59.6841C13.6649 59.1834 17.3701 59.5839 17.1699 57.7814C17.0697 56.4796 15.6678 55.5783 14.7665 54.8773C8.15718 49.5698 2.34899 42.3597 0.746737 33.8477C-1.35623 23.5331 3.15012 12.9182 9.55915 5.00705C9.65929 4.90691 9.85957 5.00705 10.16 5.20733C13.6649 7.21015 16.1685 6.40903 18.0711 5.90832C31.8906 1.80254 37.8991 -0.200284 52.2192 -1.61398e-06C52.5197 -1.61398e-06 56.8257 0.100139 56.4252 0.500704C56.0246 0.901268 53.5211 2.00282 52.6198 2.30324C51.318 2.80395 48.9146 3.70522 47.5126 4.50635C45.1092 5.80818 41.7044 7.91114 46.0105 9.21298C59.3293 13.1185 69.1431 17.024 76.7538 29.5416C76.8539 29.7419 76.8539 29.842 76.5535 29.7419C72.4477 28.3399 71.947 28.8406 71.947 33.347C72.0472 34.9492 72.1473 36.4513 72.1473 38.0536C72.1473 48.5684 67.3405 57.481 59.2291 64.2905C55.9245 67.0945 52.2192 69.3977 48.4139 70.7997C48.0133 71 47.813 71 48.1135 70.5994Z" fill="black"/>
<path fill-rule="evenodd" clip-rule="evenodd" d="M36.1967 54.2764C37.098 54.3766 37.9993 54.4767 39.1008 54.1763C44.909 52.7743 50.0162 49.2694 53.3209 46.2652C56.0247 43.7616 56.1248 47.6671 56.0247 49.0691C56.0247 49.3695 56.2249 49.3695 56.4252 49.0691C57.3265 47.9676 58.2278 44.1622 58.5282 42.5599C59.6297 36.952 57.7271 33.1467 55.0233 28.4401C52.9203 25.1354 57.5268 25.9365 58.8286 26.6375C59.6297 27.0381 59.5296 27.0381 58.8286 26.4372C52.3194 20.4288 43.2066 18.7264 34.6946 19.8279C33.4929 20.0282 31.4901 20.3286 30.9894 20.2285C29.287 19.8279 30.7891 17.8251 31.7905 17.024C28.9866 18.1255 26.5832 19.7278 24.5804 21.33C20.6749 24.4344 18.3716 29.3413 17.0698 34.2482L14.9668 40.5571C14.8667 40.7574 14.9668 40.9577 15.1671 41.158C25.9824 48.0677 31.7905 53.4753 36.1967 54.2764ZM62.9344 17.6248C62.8343 17.6248 62.8343 17.5247 62.7341 17.5247C62.8343 17.6248 62.8343 17.6248 62.9344 17.6248ZM54.3223 66.8942C56.9259 64.591 60.8314 56.6798 58.5282 56.079C57.7271 55.8787 56.9259 56.3794 55.7242 56.9803C54.0218 57.7814 51.9189 59.0832 49.5155 59.8843C43.6072 61.8872 37.8991 62.8886 32.2912 62.9887C29.8879 62.9887 27.5846 62.7884 25.2814 62.5882C23.6791 62.2877 23.3787 62.0874 25.1812 61.8872C28.586 61.4866 36.1967 58.9831 31.9908 58.0818C30.2884 57.7814 29.7877 57.6812 28.1855 57.2807C16.7694 54.4767 5.65372 47.567 2.24892 36.3512C-1.25601 24.7348 4.05146 13.4189 9.05852 7.00987C8.95837 9.21298 8.65795 13.3188 13.4647 10.4147C22.3773 5.00705 30.0881 2.00282 40.6029 0.700986C44.208 0.200281 47.713 0.10014 51.318 0.10014C52.3194 0.10014 53.2207 0.10014 54.0218 0.200281C55.4238 0.300422 56.3251 0.400563 56.2249 0.500704C56.2249 0.600845 56.1248 0.600845 56.0247 0.700986C55.1234 1.10155 54.2221 1.50211 53.3209 1.80254C47.6128 4.00564 31.8907 9.91396 43.3068 10.9154C52.8202 12.0169 61.7327 14.7207 68.8427 21.2299C69.8441 22.031 70.9457 23.433 70.8455 23.5331C70.8455 23.5331 70.1446 23.1326 69.6439 22.9323C67.0402 21.6305 59.9302 19.8279 63.5352 23.5331C76.6537 37.4528 70.1446 56.5797 54.3223 66.8942C53.9217 67.2948 53.9217 67.1946 54.3223 66.8942Z" fill="#85160D"/>
<path fill-rule="evenodd" clip-rule="evenodd" d="M57.2265 26.8378C57.7272 26.9379 58.328 27.1382 58.7286 27.2384C58.9289 27.2384 51.8189 17.3244 33.7935 19.3272C29.6877 19.7278 31.8908 17.3244 34.2942 16.5233C35.596 16.1227 36.0967 15.9224 34.194 16.323C33.2928 16.5233 32.4916 16.8237 31.5904 17.1241C23.3788 20.8293 18.6722 26.5374 16.0685 34.6488C15.8682 35.4499 15.2674 36.952 14.7667 38.354C14.3661 39.3554 14.1658 41.3583 12.7638 37.4528C12.864 38.354 13.3647 39.9563 14.1658 41.158C14.266 41.2581 14.3661 41.4584 14.5664 41.5585C18.0713 44.3625 21.8767 46.6657 26.6835 50.0705C27.5847 50.7715 30.4888 52.2736 31.9909 53.3752C32.5918 53.8759 32.0911 54.0762 31.1898 54.0762C30.2885 54.0762 29.5875 53.976 28.6863 53.7757C21.7765 52.0733 15.0671 48.5684 10.06 43.5614C10.2603 43.7616 10.4606 44.0621 10.6609 44.2623C11.9627 45.6643 13.3647 46.9662 14.8668 48.0677C17.5706 50.0705 20.675 51.6728 23.5791 52.7743C26.4832 53.7757 29.4874 54.3766 32.5918 54.5769H32.2913C37.3985 54.7772 41.1038 53.976 44.809 52.2736C47.2124 51.1721 49.4155 49.8702 51.6186 48.0677C52.3196 47.567 54.3224 45.7645 54.8231 46.0649C55.4239 46.3653 55.2237 48.0677 55.2237 49.1693C55.2237 49.3695 55.4239 49.4697 55.5241 49.2694C57.1263 47.3667 57.9275 44.9633 58.4282 42.8604C59.5297 37.2525 58.328 33.6474 55.6242 28.9408C54.5227 26.8378 55.4239 26.4372 57.2265 26.8378ZM55.0234 0.901268C47.4127 3.70522 39.8019 5.90832 33.1926 10.2144C32.0911 11.0155 31.3901 11.7165 33.1926 11.6164C45.8104 10.3145 57.627 12.9182 67.6411 20.7292C68.3421 21.2299 68.242 21.2299 67.541 20.9295C64.4366 19.6276 61.9331 18.6262 58.2279 17.725C53.5213 16.5233 50.1165 16.4231 56.3252 20.4288C63.2349 24.9351 68.1418 30.6432 68.943 39.3554C69.0431 40.457 69.0431 41.6587 69.0431 42.8604C69.0431 43.3611 68.943 43.7616 68.943 44.2623C68.242 52.3738 63.5354 58.7828 57.627 64.0903C56.1249 65.3921 56.0248 65.3921 57.4268 63.89C60.7314 60.4852 62.9345 56.1791 64.2363 51.5726C65.8386 45.8646 65.0375 40.5571 63.1348 40.9577C62.6341 41.0578 62.3337 41.7588 61.9331 42.8604C60.8316 45.6643 59.4296 47.7673 57.4268 50.0705C52.9204 55.378 45.7103 58.2821 38.9007 60.5853C40.4028 60.4852 43.3069 59.3836 45.0093 58.7828C52.1193 55.8787 56.5255 53.1749 60.8316 47.3667C61.4324 46.4654 61.3323 47.1664 60.6313 48.1678C57.2265 54.1763 50.1165 58.8829 40.3026 61.1862C36.8978 61.9873 33.2928 62.0874 29.888 62.1876C27.5847 62.2877 27.3844 62.1876 29.888 61.787C33.8936 61.1862 37.699 60.2849 41.1038 57.8815C42.706 56.78 41.304 56.78 40.5029 56.8801C35.2956 57.3808 30.3887 57.0804 25.3816 55.6784C11.3619 51.4725 0.847063 42.1594 1.94861 26.6375C2.44932 20.1284 5.05299 13.9196 7.45637 10.0141C7.05581 11.1157 6.25468 14.4203 6.15454 17.2243C6.0544 19.8279 6.45496 21.2299 7.55651 19.7278C7.95708 19.1269 8.35764 18.7264 8.75821 18.1255C18.1715 6.40903 32.7921 1.60226 47.7131 0.700986C52.5198 0.300422 54.1221 0.400563 55.2237 0.600845C56.5255 0.500704 55.7244 0.600845 55.0234 0.901268Z" fill="#BB4A18"/>
<path fill-rule="evenodd" clip-rule="evenodd" d="M32.0911 9.61354C29.888 10.7151 27.2843 12.4175 25.7822 14.0197C25.0812 14.921 25.3816 15.1213 26.9839 14.3202C38.5001 9.81382 51.919 12.6178 61.5325 17.1241C63.8358 18.2257 63.6355 18.5261 61.2321 17.6248C56.0248 15.5219 38.9007 13.7193 49.9162 18.2257C51.6186 18.9267 53.2208 19.7278 54.7229 20.6291C63.4352 25.6361 69.1432 33.5473 68.0417 44.763C67.9416 47.1664 66.0389 52.6742 63.9359 55.6784C62.6341 57.6812 62.6341 57.5811 63.6355 55.5783C67.541 47.7673 68.4423 40.0564 64.4366 32.1453C62.0332 27.4386 58.1277 23.7334 53.2208 21.33C50.7173 20.1283 48.0135 19.2271 45.1094 18.7264C41.8047 18.1255 37.5988 18.2257 34.2942 18.426C32.5918 18.5261 32.2913 18.2257 33.1926 17.4245C34.194 16.6234 37.5988 15.2214 42.3054 15.1213C42.8061 15.1213 44.5085 15.2214 44.108 15.0212C28.7864 14.5204 20.0741 21.4302 15.7681 32.0451C15.0671 33.8477 14.5664 35.5501 14.1658 37.4528C14.1658 37.653 13.8654 38.5543 13.7652 38.5543C13.6651 38.5543 13.2645 37.9535 13.1644 37.7532C12.864 36.8519 12.5636 35.6502 12.5636 34.6488C12.4634 23.7334 21.4761 12.7179 32.0911 9.61354ZM55.0234 0.600844C55.2236 0.600844 55.2236 0.700985 54.6228 0.901267C46.9119 3.30465 37.699 5.70804 30.1884 9.21297C25.682 11.3159 22.077 13.6192 18.8724 17.5247C9.05862 28.9408 9.35904 43.0606 23.0784 51.5726C23.1785 51.6728 23.4789 51.8731 23.1785 51.7729C8.7582 45.464 0.646769 29.842 12.5636 15.9224C24.1799 3.30465 41.7046 0.801126 55.0234 0.600844ZM14.7667 42.5599L14.8668 42.4598L26.4832 50.5712L29.3873 52.574C30.0882 52.9746 29.888 53.1749 28.8865 52.8745C23.5791 51.2722 18.9726 47.6671 14.7667 42.5599ZM9.55932 42.9605C17.871 53.1749 32.6919 57.3808 44.809 52.4739C45.9105 52.0733 50.2166 49.8702 51.919 48.4683C53.8217 46.866 54.6228 46.7659 54.5227 47.9676C54.3224 50.0705 53.321 51.8731 51.919 53.4753C55.2236 51.1721 58.1277 48.268 59.4296 43.1608C60.5311 38.7546 59.2293 32.9464 56.7258 29.141C55.8245 27.7391 55.9246 27.3385 56.6256 27.4386C59.73 27.7391 62.0332 29.5416 63.6355 32.1453C66.5396 36.8519 67.2406 44.0621 66.139 48.4683C65.6383 50.6714 65.5382 50.8717 65.8386 48.5684C66.3393 44.6629 66.5396 39.8561 63.7356 36.2511C61.7328 34.4485 61.9331 37.4528 61.5325 39.756C60.431 49.8702 51.5184 55.2779 44.2081 58.5825C43.5071 58.8829 42.706 59.1834 42.005 59.4838C41.6045 59.6841 41.2039 59.7842 41.9049 59.3836C44.3083 57.9817 47.3125 55.7786 46.9119 54.9774C46.4112 54.2765 41.9049 56.079 36.3971 56.2793C23.7794 56.2793 13.1644 52.4739 5.95425 41.6587C1.04733 33.7475 1.84846 23.3329 4.65241 16.4231C6.25467 12.5176 4.85269 17.6248 4.55227 19.1269C3.35058 27.7391 4.55227 35.7504 9.55932 42.9605Z" fill="#DC911B"/>
<path fill-rule="evenodd" clip-rule="evenodd" d="M59.029 45.464C61.1319 39.756 60.2307 33.8477 56.7257 28.3399C56.3252 27.8392 56.8259 27.5388 57.5268 28.2398C60.9316 31.6446 61.9331 40.5571 59.029 45.464ZM19.3731 46.2652L25.1813 50.2708L26.5833 51.2722C26.8837 51.4725 26.7835 51.5726 26.2828 51.3724C23.7793 50.1707 21.4761 48.4683 19.3731 46.2652ZM38.5 54.7771C40.5029 54.3766 42.6058 53.8759 43.3068 53.6756C48.0134 52.0733 50.8174 50.3709 53.0205 48.4683C53.5212 47.9676 54.4225 47.7673 53.5212 48.969C51.3181 51.4725 46.5113 53.275 43.2067 54.2764C41.6044 54.7771 38.0995 55.4781 35.596 55.5783C26.0826 56.1791 17.7709 52.6742 13.8654 49.3695C14.7666 49.8702 24.8809 56.9803 38.5 54.7771ZM14.8668 28.9408C19.0727 16.1227 31.0896 11.4161 47.2123 13.519C29.7878 12.0169 20.1742 17.4245 15.5677 29.0409C15.1672 30.0423 14.8668 31.0437 14.5663 32.1453L13.9655 35.4499C13.8654 36.4513 13.8654 37.1523 13.7652 37.2525C13.6651 37.2525 13.6651 36.0508 13.7652 34.4485C13.9655 32.5458 14.2659 30.7433 14.8668 28.9408ZM8.75816 32.4457C7.55647 10.9154 34.0938 1.60225 52.7201 1.00141C53.8216 0.901268 53.9218 1.00141 52.6199 1.30183C42.8061 3.50493 28.7864 6.70945 19.6735 14.3202C14.6665 18.5261 10.761 25.536 10.4606 32.2454C10.1601 37.8533 12.163 41.859 15.5677 46.0649C11.5621 42.6601 8.95844 37.8533 8.75816 32.4457ZM4.9528 16.6234C2.84984 24.7348 3.35054 30.9436 5.35336 37.9535C2.14885 31.4443 2.34913 22.5317 4.9528 16.6234ZM34.3943 18.1255C33.3929 18.3258 33.1926 17.6248 34.6947 17.4245C51.8188 15.4217 65.5381 25.7362 67.1404 37.0522C63.6355 23.8336 50.4168 16.323 34.3943 18.1255Z" fill="#FAE13E"/>
</g>
<g clip-path="url(#clip1_36_206)">
<path fill-rule="evenodd" clip-rule="evenodd" d="M208.948 22.958L221.311 34.026H212.279L203.719 25.943H200.036V34.026H194.06V12.053H200.035V20.017H203.719L212.344 12.053H221.379L208.947 22.958H208.948ZM185.05 18.156H182.997L175.907 34.009H169.282L162.192 18.155H160V34.01H154.04V12.072V12.048H166.047L172.595 26.574L179.142 12.037C183.057 12.037 187.029 12.047 190.947 12.047V34.01H185.05V18.156ZM130.263 18.022H130.198C129.732 18.022 129.314 18.302 129.111 18.704C128.966 18.994 128.988 19.344 128.988 19.659L128.978 33.987H123.016L123.008 18.411C123.004 18.319 123.001 18.225 123.001 18.131C123.001 18.041 123.003 17.951 123.007 17.861V17.848C123.007 17.694 123.021 17.538 123.047 17.381C123.417 14.384 125.985 12.051 129.079 12.051C129.134 12.051 129.189 12.051 129.243 12.054C129.291 12.052 129.339 12.05 129.385 12.05H151.039V18.02C147.065 18.022 134.154 18.022 130.264 18.02L130.263 18.022ZM119.99 28.662C119.618 31.656 117.05 33.987 113.958 33.987H113.652C109.127 33.989 96.5389 33.989 92.0139 33.987V28.024C95.9979 28.022 108.898 28.022 112.801 28.024C112.888 28.028 112.971 28.022 113.056 28.002C113.632 27.907 114.073 27.405 114.073 26.804L114.067 23.98H98.0719C94.9789 23.98 92.4119 21.46 92.0419 18.466C91.9859 18.13 91.9869 17.78 92.0019 17.439L92.0059 12.044H97.9799L97.9819 16.317C97.9819 16.483 97.9819 16.653 97.9899 16.819C98.0029 17.497 98.5879 18.049 99.2579 18.015C103.132 18.013 109.962 18.013 114.054 18.015L114.042 12.01H120.036L120.028 27.635C120.041 27.913 120.034 28.387 119.988 28.662H119.99Z" fill="#1C242E"/>
</g>
<g clip-path="url(#clip2_36_206)">
<path fill-rule="evenodd" clip-rule="evenodd" d="M215.35 48.003V47.177C215.35 46.917 215.265 46.681 215.12 46.489C214.9 46.203 214.523 46.029 214.166 46.033C210.278 46.036 206.098 46.036 202.211 46.033C202.138 46.03 202.066 46.033 201.993 46.05C201.461 46.126 201.05 46.578 201.026 47.118C201.021 47.225 201.024 47.336 201.024 47.444L201.022 49.957L201.025 52.56C201.025 52.682 201.021 52.802 201.025 52.923C201.038 53.557 201.587 54.081 202.213 54.047C206.101 54.045 210.437 54.045 214.325 54.047C214.962 54.053 215.352 53.403 215.352 52.75V52.05H221V54.085C221.023 54.609 220.978 55.083 220.86 55.593C220.336 57.853 218.46 59.645 216.142 59.975C215.782 60.025 215.422 60.032 215.062 60.032C210.222 60.032 205.82 60.034 200.98 60.032C200.463 60.032 199.957 60.007 199.45 59.892C197.15 59.37 195.372 57.432 195.078 55.047C195.028 54.732 195.028 54.404 195.042 54.085L195.044 49.957L195.042 45.965C195.027 45.651 195.027 45.315 195.078 45.005C195.383 42.53 197.282 40.539 199.705 40.105C200.129 40.031 200.552 40.018 200.98 40.018H215.06C215.357 40.018 215.65 40.02 215.946 40.052C218.431 40.317 220.446 42.208 220.906 44.642C220.99 45.08 221.003 45.484 221 45.965V48.003H215.35ZM186.028 46.053H184.654L178.039 60.013H171.854L165.24 46.054H164.002V60.016H158.012C158.012 53.222 158.002 46.784 158.002 39.999L168.852 40.004L174.947 53.304L181.035 40.02H192.019V60.015H186.027V46.055L186.028 46.053ZM149.013 46.023H147.763L141.149 60.013H134.964L128.35 46.024H127.018V60.016H121.06C121.06 53.222 121.05 46.784 121.05 39.999L131.963 40.004L138.057 53.304L144.145 40.02H155.005V60.015H149.013V46.023ZM112.4 60.016H97.6539C94.7739 60.016 92.3819 57.846 92.0369 55.06C92.0129 54.914 91.9999 54.77 91.9999 54.627V54.617C91.9929 54.445 91.9929 54.277 91.9999 54.104L92.0069 40.004H98.0399L98.0299 53.647C98.0099 54.331 98.3659 54.994 99.2199 55.034C103.107 55.032 106.942 55.032 110.83 55.034C111.46 55.067 112.013 54.527 112.013 53.899L112.02 40H118.045L118.053 54.104C118.06 54.276 118.06 54.444 118.053 54.616V54.626C118.053 54.77 118.04 54.914 118.016 55.06C117.67 57.847 115.28 60.016 112.399 60.016H112.4Z" fill="#FF7C00"/>
</g>
<path d="M256.728 18.456C256.568 18.824 256.4 19.172 256.224 19.5C256.056 19.82 255.852 20.1 255.612 20.34C255.38 20.58 255.096 20.768 254.76 20.904C254.432 21.04 254.024 21.108 253.536 21.108C253.44 21.108 253.34 21.1 253.236 21.084C253.132 21.076 253.032 21.06 252.936 21.036C252.84 21.02 252.756 21 252.684 20.976C252.612 20.952 252.56 20.928 252.528 20.904L252.732 19.92C252.836 19.96 252.96 20 253.104 20.04C253.256 20.08 253.412 20.1 253.572 20.1C253.812 20.1 254.02 20.072 254.196 20.016C254.38 19.952 254.544 19.868 254.688 19.764C254.832 19.652 254.96 19.52 255.072 19.368C255.184 19.208 255.292 19.032 255.396 18.84C255.044 18.272 254.712 17.708 254.4 17.148C254.088 16.58 253.8 16.032 253.536 15.504C253.272 14.976 253.032 14.476 252.816 14.004C252.6 13.524 252.408 13.084 252.24 12.684H253.56C253.824 13.38 254.16 14.156 254.568 15.012C254.984 15.868 255.444 16.764 255.948 17.7C256.268 16.972 256.572 16.172 256.86 15.3C257.156 14.42 257.432 13.548 257.688 12.684H258.948C258.764 13.26 258.58 13.804 258.396 14.316C258.212 14.82 258.028 15.308 257.844 15.78C257.66 16.244 257.476 16.7 257.292 17.148C257.108 17.588 256.92 18.024 256.728 18.456ZM262.283 12.6C263.451 12.6 264.347 12.824 264.971 13.272C265.603 13.712 265.919 14.372 265.919 15.252C265.919 15.732 265.831 16.144 265.655 16.488C265.487 16.824 265.239 17.1 264.911 17.316C264.591 17.524 264.199 17.676 263.735 17.772C263.271 17.868 262.747 17.916 262.163 17.916H261.239V21H260.075V12.804C260.403 12.724 260.767 12.672 261.167 12.648C261.575 12.616 261.947 12.6 262.283 12.6ZM262.379 13.62C261.883 13.62 261.503 13.632 261.239 13.656V16.92H262.115C262.515 16.92 262.875 16.896 263.195 16.848C263.515 16.792 263.783 16.704 263.999 16.584C264.223 16.456 264.395 16.284 264.515 16.068C264.635 15.852 264.695 15.576 264.695 15.24C264.695 14.92 264.631 14.656 264.503 14.448C264.383 14.24 264.215 14.076 263.999 13.956C263.791 13.828 263.547 13.74 263.267 13.692C262.987 13.644 262.691 13.62 262.379 13.62ZM272.334 21C272.198 20.64 272.07 20.288 271.95 19.944C271.83 19.592 271.706 19.236 271.578 18.876H267.81L267.054 21H265.842C266.162 20.12 266.462 19.308 266.742 18.564C267.022 17.812 267.294 17.1 267.558 16.428C267.83 15.756 268.098 15.116 268.362 14.508C268.626 13.892 268.902 13.284 269.19 12.684H270.258C270.546 13.284 270.822 13.892 271.086 14.508C271.35 15.116 271.614 15.756 271.878 16.428C272.15 17.1 272.426 17.812 272.706 18.564C272.986 19.308 273.286 20.12 273.606 21H272.334ZM271.242 17.916C270.986 17.22 270.73 16.548 270.474 15.9C270.226 15.244 269.966 14.616 269.694 14.016C269.414 14.616 269.146 15.244 268.89 15.9C268.642 16.548 268.394 17.22 268.146 17.916H271.242ZM277.872 13.68C277.856 14.128 277.84 14.564 277.824 14.988C277.808 15.404 277.784 15.812 277.752 16.212C277.72 16.604 277.672 16.988 277.608 17.364C277.544 17.74 277.456 18.108 277.344 18.468C277.232 18.828 277.092 19.168 276.924 19.488C276.764 19.8 276.56 20.076 276.312 20.316C276.072 20.548 275.784 20.736 275.448 20.88C275.12 21.024 274.732 21.104 274.284 21.12L274.152 20.112C274.712 20.048 275.144 19.872 275.448 19.584C275.76 19.296 276.016 18.856 276.216 18.264C276.44 17.592 276.58 16.784 276.636 15.84C276.7 14.888 276.732 13.836 276.732 12.684H281.448V21H280.284V13.68H277.872ZM289.428 18.396C289.428 19.292 289.104 19.964 288.456 20.412C287.808 20.86 286.896 21.084 285.72 21.084C285.384 21.084 285.016 21.068 284.616 21.036C284.216 21.012 283.848 20.96 283.512 20.88V12.684H284.676V15.708C284.836 15.692 284.996 15.684 285.156 15.684C285.324 15.676 285.488 15.672 285.648 15.672C288.168 15.672 289.428 16.58 289.428 18.396ZM288.204 18.396C288.204 18.06 288.14 17.78 288.012 17.556C287.884 17.332 287.704 17.156 287.472 17.028C287.248 16.9 286.976 16.812 286.656 16.764C286.344 16.708 285.996 16.68 285.612 16.68C285.46 16.68 285.304 16.68 285.144 16.68C284.992 16.68 284.836 16.688 284.676 16.704V20.028C284.82 20.044 284.98 20.056 285.156 20.064C285.34 20.064 285.56 20.064 285.816 20.064C286.128 20.064 286.428 20.04 286.716 19.992C287.004 19.944 287.256 19.856 287.472 19.728C287.696 19.6 287.872 19.432 288 19.224C288.136 19.008 288.204 18.732 288.204 18.396ZM294.483 21.18C293.899 21.18 293.367 21.084 292.887 20.892C292.407 20.7 291.995 20.42 291.651 20.052C291.307 19.684 291.039 19.232 290.847 18.696C290.663 18.152 290.571 17.532 290.571 16.836C290.571 16.14 290.675 15.524 290.883 14.988C291.099 14.444 291.387 13.988 291.747 13.62C292.107 13.252 292.527 12.972 293.007 12.78C293.487 12.588 293.999 12.492 294.543 12.492C294.887 12.492 295.195 12.516 295.467 12.564C295.747 12.612 295.987 12.668 296.187 12.732C296.395 12.796 296.563 12.86 296.691 12.924C296.819 12.988 296.907 13.036 296.955 13.068L296.619 14.028C296.547 13.98 296.443 13.928 296.307 13.872C296.171 13.816 296.015 13.76 295.839 13.704C295.671 13.648 295.483 13.604 295.275 13.572C295.075 13.532 294.871 13.512 294.663 13.512C294.223 13.512 293.827 13.588 293.475 13.74C293.123 13.892 292.823 14.112 292.575 14.4C292.327 14.688 292.135 15.04 291.999 15.456C291.871 15.864 291.807 16.324 291.807 16.836C291.807 17.332 291.863 17.784 291.975 18.192C292.095 18.6 292.271 18.952 292.503 19.248C292.735 19.536 293.023 19.76 293.367 19.92C293.719 20.08 294.127 20.16 294.591 20.16C295.127 20.16 295.571 20.104 295.923 19.992C296.275 19.88 296.539 19.78 296.715 19.692L297.015 20.652C296.959 20.692 296.859 20.744 296.715 20.808C296.571 20.864 296.391 20.92 296.175 20.976C295.959 21.032 295.707 21.08 295.419 21.12C295.131 21.16 294.819 21.18 294.483 21.18ZM304.504 12.684C304.256 12.956 303.976 13.26 303.664 13.596C303.352 13.924 303.024 14.264 302.68 14.616C302.344 14.96 302.008 15.3 301.672 15.636C301.336 15.972 301.02 16.284 300.724 16.572C301.068 16.812 301.432 17.108 301.816 17.46C302.2 17.812 302.576 18.188 302.944 18.588C303.312 18.988 303.656 19.396 303.976 19.812C304.304 20.228 304.576 20.624 304.792 21H303.424C303.184 20.624 302.908 20.248 302.596 19.872C302.284 19.488 301.952 19.124 301.6 18.78C301.256 18.428 300.904 18.104 300.544 17.808C300.192 17.512 299.848 17.26 299.512 17.052V21H298.348V12.684H299.512V16.356C299.792 16.092 300.1 15.796 300.436 15.468C300.772 15.132 301.104 14.796 301.432 14.46C301.76 14.124 302.068 13.804 302.356 13.5C302.652 13.188 302.9 12.916 303.1 12.684H304.504ZM311.861 21C311.725 20.64 311.597 20.288 311.477 19.944C311.357 19.592 311.233 19.236 311.105 18.876H307.337L306.581 21H305.369C305.689 20.12 305.989 19.308 306.269 18.564C306.549 17.812 306.821 17.1 307.085 16.428C307.357 15.756 307.625 15.116 307.889 14.508C308.153 13.892 308.429 13.284 308.717 12.684H309.785C310.073 13.284 310.349 13.892 310.613 14.508C310.877 15.116 311.141 15.756 311.405 16.428C311.677 17.1 311.953 17.812 312.233 18.564C312.513 19.308 312.813 20.12 313.133 21H311.861ZM310.769 17.916C310.513 17.22 310.257 16.548 310.001 15.9C309.753 15.244 309.493 14.616 309.221 14.016C308.941 14.616 308.673 15.244 308.417 15.9C308.169 16.548 307.921 17.22 307.673 17.916H310.769ZM317.678 13.62C317.374 13.62 317.082 13.644 316.802 13.692C316.53 13.74 316.286 13.824 316.07 13.944C315.854 14.064 315.682 14.228 315.554 14.436C315.426 14.644 315.362 14.904 315.362 15.216C315.362 15.808 315.55 16.22 315.926 16.452C316.31 16.676 316.882 16.788 317.642 16.788H318.842V13.656C318.754 13.656 318.65 13.652 318.53 13.644C318.426 13.636 318.302 13.632 318.158 13.632C318.022 13.624 317.862 13.62 317.678 13.62ZM317.774 12.6C317.942 12.6 318.122 12.604 318.314 12.612C318.506 12.62 318.698 12.632 318.89 12.648C319.09 12.664 319.286 12.684 319.478 12.708C319.67 12.732 319.846 12.764 320.006 12.804V21H318.842V17.748H317.846C317.734 17.748 317.614 17.748 317.486 17.748C317.366 17.74 317.202 17.724 316.994 17.7C316.85 17.892 316.694 18.116 316.526 18.372C316.358 18.628 316.19 18.9 316.022 19.188C315.854 19.476 315.686 19.776 315.518 20.088C315.358 20.4 315.21 20.704 315.074 21H313.85C313.978 20.688 314.13 20.364 314.306 20.028C314.482 19.692 314.662 19.372 314.846 19.068C315.038 18.764 315.218 18.484 315.386 18.228C315.562 17.964 315.714 17.748 315.842 17.58C315.658 17.524 315.466 17.444 315.266 17.34C315.066 17.236 314.882 17.092 314.714 16.908C314.546 16.724 314.406 16.496 314.294 16.224C314.19 15.944 314.138 15.612 314.138 15.228C314.138 14.796 314.222 14.416 314.39 14.088C314.558 13.76 314.798 13.488 315.11 13.272C315.43 13.048 315.814 12.88 316.262 12.768C316.71 12.656 317.214 12.6 317.774 12.6ZM257.916 31.684V32.692H254.196V40H253.032V31.684H257.916ZM258.473 35.836C258.473 35.124 258.577 34.496 258.785 33.952C259.001 33.408 259.289 32.956 259.649 32.596C260.017 32.228 260.441 31.952 260.921 31.768C261.409 31.584 261.925 31.492 262.469 31.492C263.005 31.492 263.509 31.584 263.981 31.768C264.461 31.952 264.881 32.228 265.241 32.596C265.601 32.956 265.885 33.408 266.093 33.952C266.309 34.496 266.417 35.124 266.417 35.836C266.417 36.548 266.309 37.176 266.093 37.72C265.885 38.264 265.601 38.72 265.241 39.088C264.881 39.448 264.461 39.72 263.981 39.904C263.509 40.088 263.005 40.18 262.469 40.18C261.925 40.18 261.409 40.088 260.921 39.904C260.441 39.72 260.017 39.448 259.649 39.088C259.289 38.72 259.001 38.264 258.785 37.72C258.577 37.176 258.473 36.548 258.473 35.836ZM259.697 35.836C259.697 36.34 259.761 36.8 259.889 37.216C260.017 37.624 260.197 37.972 260.429 38.26C260.669 38.548 260.957 38.772 261.293 38.932C261.637 39.084 262.021 39.16 262.445 39.16C262.869 39.16 263.249 39.084 263.585 38.932C263.921 38.772 264.205 38.548 264.437 38.26C264.677 37.972 264.861 37.624 264.989 37.216C265.117 36.8 265.181 36.34 265.181 35.836C265.181 35.332 265.117 34.876 264.989 34.468C264.861 34.052 264.677 33.7 264.437 33.412C264.205 33.124 263.921 32.904 263.585 32.752C263.249 32.592 262.869 32.512 262.445 32.512C262.021 32.512 261.637 32.592 261.293 32.752C260.957 32.904 260.669 33.124 260.429 33.412C260.197 33.7 260.017 34.052 259.889 34.468C259.761 34.876 259.697 35.332 259.697 35.836ZM270.357 31.6C271.525 31.6 272.421 31.824 273.045 32.272C273.677 32.712 273.993 33.372 273.993 34.252C273.993 34.732 273.905 35.144 273.729 35.488C273.561 35.824 273.313 36.1 272.985 36.316C272.665 36.524 272.273 36.676 271.809 36.772C271.345 36.868 270.821 36.916 270.237 36.916H269.313V40H268.149V31.804C268.477 31.724 268.841 31.672 269.241 31.648C269.649 31.616 270.021 31.6 270.357 31.6ZM270.453 32.62C269.957 32.62 269.577 32.632 269.313 32.656V35.92H270.189C270.589 35.92 270.949 35.896 271.269 35.848C271.589 35.792 271.857 35.704 272.073 35.584C272.297 35.456 272.469 35.284 272.589 35.068C272.709 34.852 272.769 34.576 272.769 34.24C272.769 33.92 272.705 33.656 272.577 33.448C272.457 33.24 272.289 33.076 272.073 32.956C271.865 32.828 271.621 32.74 271.341 32.692C271.061 32.644 270.765 32.62 270.453 32.62ZM280.682 31.684H281.846V40H280.682V36.16H276.614V40H275.45V31.684H276.614V35.152H280.682V31.684ZM283.575 35.836C283.575 35.124 283.679 34.496 283.887 33.952C284.103 33.408 284.391 32.956 284.751 32.596C285.119 32.228 285.543 31.952 286.023 31.768C286.511 31.584 287.027 31.492 287.571 31.492C288.107 31.492 288.611 31.584 289.083 31.768C289.563 31.952 289.983 32.228 290.343 32.596C290.703 32.956 290.987 33.408 291.195 33.952C291.411 34.496 291.519 35.124 291.519 35.836C291.519 36.548 291.411 37.176 291.195 37.72C290.987 38.264 290.703 38.72 290.343 39.088C289.983 39.448 289.563 39.72 289.083 39.904C288.611 40.088 288.107 40.18 287.571 40.18C287.027 40.18 286.511 40.088 286.023 39.904C285.543 39.72 285.119 39.448 284.751 39.088C284.391 38.72 284.103 38.264 283.887 37.72C283.679 37.176 283.575 36.548 283.575 35.836ZM284.799 35.836C284.799 36.34 284.863 36.8 284.991 37.216C285.119 37.624 285.299 37.972 285.531 38.26C285.771 38.548 286.059 38.772 286.395 38.932C286.739 39.084 287.123 39.16 287.547 39.16C287.971 39.16 288.351 39.084 288.687 38.932C289.023 38.772 289.307 38.548 289.539 38.26C289.779 37.972 289.963 37.624 290.091 37.216C290.219 36.8 290.283 36.34 290.283 35.836C290.283 35.332 290.219 34.876 290.091 34.468C289.963 34.052 289.779 33.7 289.539 33.412C289.307 33.124 289.023 32.904 288.687 32.752C288.351 32.592 287.971 32.512 287.547 32.512C287.123 32.512 286.739 32.592 286.395 32.752C286.059 32.904 285.771 33.124 285.531 33.412C285.299 33.7 285.119 34.052 284.991 34.468C284.863 34.876 284.799 35.332 284.799 35.836ZM292.695 35.884H295.659V36.928H292.695V35.884ZM300.733 38.848C300.653 38.656 300.545 38.412 300.409 38.116C300.281 37.82 300.141 37.5 299.989 37.156C299.837 36.812 299.673 36.46 299.497 36.1C299.329 35.732 299.169 35.388 299.017 35.068C298.865 34.74 298.721 34.448 298.585 34.192C298.457 33.936 298.353 33.74 298.273 33.604C298.185 34.548 298.113 35.572 298.057 36.676C298.001 37.772 297.953 38.88 297.913 40H296.773C296.805 39.28 296.841 38.556 296.881 37.828C296.921 37.092 296.965 36.372 297.013 35.668C297.069 34.956 297.125 34.264 297.181 33.592C297.245 32.92 297.313 32.284 297.385 31.684H298.405C298.621 32.036 298.853 32.452 299.101 32.932C299.349 33.412 299.597 33.916 299.845 34.444C300.093 34.964 300.333 35.488 300.565 36.016C300.797 36.536 301.009 37.012 301.201 37.444C301.393 37.012 301.605 36.536 301.837 36.016C302.069 35.488 302.309 34.964 302.557 34.444C302.805 33.916 303.053 33.412 303.301 32.932C303.549 32.452 303.781 32.036 303.997 31.684H305.017C305.289 34.364 305.493 37.136 305.629 40H304.489C304.449 38.88 304.401 37.772 304.345 36.676C304.289 35.572 304.217 34.548 304.129 33.604C304.049 33.74 303.941 33.936 303.805 34.192C303.677 34.448 303.537 34.74 303.385 35.068C303.233 35.388 303.069 35.732 302.893 36.1C302.725 36.46 302.565 36.812 302.413 37.156C302.261 37.5 302.117 37.82 301.981 38.116C301.853 38.412 301.749 38.656 301.669 38.848H300.733ZM307.454 40V31.684H312.53V32.68H308.618V35.152H312.098V36.124H308.618V39.004H312.83V40H307.454ZM319.865 31.684V32.692H317.249V40H316.085V32.692H313.469V31.684H319.865ZM325.877 40C325.741 39.64 325.613 39.288 325.493 38.944C325.373 38.592 325.249 38.236 325.121 37.876H321.353L320.597 40H319.385C319.705 39.12 320.005 38.308 320.285 37.564C320.565 36.812 320.837 36.1 321.101 35.428C321.373 34.756 321.641 34.116 321.905 33.508C322.169 32.892 322.445 32.284 322.733 31.684H323.801C324.089 32.284 324.365 32.892 324.629 33.508C324.893 34.116 325.157 34.756 325.421 35.428C325.693 36.1 325.969 36.812 326.249 37.564C326.529 38.308 326.829 39.12 327.149 40H325.877ZM324.785 36.916C324.529 36.22 324.273 35.548 324.017 34.9C323.769 34.244 323.509 33.616 323.237 33.016C322.957 33.616 322.689 34.244 322.433 34.9C322.185 35.548 321.937 36.22 321.689 36.916H324.785ZM331.415 32.68C331.399 33.128 331.383 33.564 331.367 33.988C331.351 34.404 331.327 34.812 331.295 35.212C331.263 35.604 331.215 35.988 331.151 36.364C331.087 36.74 330.999 37.108 330.887 37.468C330.775 37.828 330.635 38.168 330.467 38.488C330.307 38.8 330.103 39.076 329.855 39.316C329.615 39.548 329.327 39.736 328.991 39.88C328.663 40.024 328.275 40.104 327.827 40.12L327.695 39.112C328.255 39.048 328.687 38.872 328.991 38.584C329.303 38.296 329.559 37.856 329.759 37.264C329.983 36.592 330.123 35.784 330.179 34.84C330.243 33.888 330.275 32.836 330.275 31.684H334.991V40H333.827V32.68H331.415ZM339.899 32.68C339.883 33.128 339.867 33.564 339.851 33.988C339.835 34.404 339.811 34.812 339.779 35.212C339.747 35.604 339.699 35.988 339.635 36.364C339.571 36.74 339.483 37.108 339.371 37.468C339.259 37.828 339.119 38.168 338.951 38.488C338.791 38.8 338.587 39.076 338.339 39.316C338.099 39.548 337.811 39.736 337.475 39.88C337.147 40.024 336.759 40.104 336.311 40.12L336.179 39.112C336.739 39.048 337.171 38.872 337.475 38.584C337.787 38.296 338.043 37.856 338.243 37.264C338.467 36.592 338.607 35.784 338.663 34.84C338.727 33.888 338.759 32.836 338.759 31.684H343.475V40H342.311V32.68H339.899ZM349.236 37.456C349.076 37.824 348.908 38.172 348.732 38.5C348.564 38.82 348.36 39.1 348.12 39.34C347.888 39.58 347.604 39.768 347.268 39.904C346.94 40.04 346.532 40.108 346.044 40.108C345.948 40.108 345.848 40.1 345.744 40.084C345.64 40.076 345.54 40.06 345.444 40.036C345.348 40.02 345.264 40 345.192 39.976C345.12 39.952 345.068 39.928 345.036 39.904L345.24 38.92C345.344 38.96 345.468 39 345.612 39.04C345.764 39.08 345.92 39.1 346.08 39.1C346.32 39.1 346.528 39.072 346.704 39.016C346.888 38.952 347.052 38.868 347.196 38.764C347.34 38.652 347.468 38.52 347.58 38.368C347.692 38.208 347.8 38.032 347.904 37.84C347.552 37.272 347.22 36.708 346.908 36.148C346.596 35.58 346.308 35.032 346.044 34.504C345.78 33.976 345.54 33.476 345.324 33.004C345.108 32.524 344.916 32.084 344.748 31.684H346.068C346.332 32.38 346.668 33.156 347.076 34.012C347.492 34.868 347.952 35.764 348.456 36.7C348.776 35.972 349.08 35.172 349.368 34.3C349.664 33.42 349.94 32.548 350.196 31.684H351.456C351.272 32.26 351.088 32.804 350.904 33.316C350.72 33.82 350.536 34.308 350.352 34.78C350.168 35.244 349.984 35.7 349.8 36.148C349.616 36.588 349.428 37.024 349.236 37.456ZM354.791 31.6C355.959 31.6 356.855 31.824 357.479 32.272C358.111 32.712 358.427 33.372 358.427 34.252C358.427 34.732 358.339 35.144 358.163 35.488C357.995 35.824 357.747 36.1 357.419 36.316C357.099 36.524 356.707 36.676 356.243 36.772C355.779 36.868 355.255 36.916 354.671 36.916H353.747V40H352.583V31.804C352.911 31.724 353.275 31.672 353.675 31.648C354.083 31.616 354.455 31.6 354.791 31.6ZM354.887 32.62C354.391 32.62 354.011 32.632 353.747 32.656V35.92H354.623C355.023 35.92 355.383 35.896 355.703 35.848C356.023 35.792 356.291 35.704 356.507 35.584C356.731 35.456 356.903 35.284 357.023 35.068C357.143 34.852 357.203 34.576 357.203 34.24C357.203 33.92 357.139 33.656 357.011 33.448C356.891 33.24 356.723 33.076 356.507 32.956C356.299 32.828 356.055 32.74 355.775 32.692C355.495 32.644 355.199 32.62 354.887 32.62ZM364.768 31.684V32.692H361.048V40H359.884V31.684H364.768ZM365.989 40V31.684H367.129V37.84C367.385 37.416 367.697 36.932 368.065 36.388C368.441 35.844 368.837 35.292 369.253 34.732C369.677 34.164 370.101 33.616 370.525 33.088C370.957 32.552 371.361 32.084 371.737 31.684H372.661V40H371.521V33.508C371.297 33.764 371.053 34.06 370.789 34.396C370.525 34.732 370.253 35.092 369.973 35.476C369.693 35.852 369.409 36.244 369.121 36.652C368.841 37.06 368.569 37.464 368.305 37.864C368.041 38.256 367.793 38.636 367.561 39.004C367.337 39.372 367.137 39.704 366.961 40H365.989ZM375.536 34.084C375.536 34.42 375.564 34.716 375.62 34.972C375.684 35.22 375.788 35.428 375.932 35.596C376.084 35.756 376.284 35.876 376.532 35.956C376.788 36.036 377.108 36.076 377.492 36.076C377.644 36.076 377.796 36.072 377.948 36.064C378.108 36.048 378.26 36.032 378.404 36.016C378.548 36 378.676 35.98 378.788 35.956C378.9 35.932 378.992 35.912 379.064 35.896V31.684H380.228V40H379.064V36.904C378.912 36.944 378.676 36.984 378.356 37.024C378.044 37.064 377.708 37.084 377.348 37.084C376.74 37.084 376.244 37.016 375.86 36.88C375.476 36.736 375.172 36.536 374.948 36.28C374.732 36.016 374.584 35.7 374.504 35.332C374.424 34.956 374.384 34.54 374.384 34.084V31.684H375.536V34.084ZM382.29 40V31.684H387.366V32.68H383.454V35.152H386.934V36.124H383.454V39.004H387.666V40H382.29ZM392.381 40.18C391.797 40.18 391.265 40.084 390.785 39.892C390.305 39.7 389.893 39.42 389.549 39.052C389.205 38.684 388.937 38.232 388.745 37.696C388.561 37.152 388.469 36.532 388.469 35.836C388.469 35.14 388.573 34.524 388.781 33.988C388.997 33.444 389.285 32.988 389.645 32.62C390.005 32.252 390.425 31.972 390.905 31.78C391.385 31.588 391.897 31.492 392.441 31.492C392.785 31.492 393.093 31.516 393.365 31.564C393.645 31.612 393.885 31.668 394.085 31.732C394.293 31.796 394.461 31.86 394.589 31.924C394.717 31.988 394.805 32.036 394.853 32.068L394.517 33.028C394.445 32.98 394.341 32.928 394.205 32.872C394.069 32.816 393.913 32.76 393.737 32.704C393.569 32.648 393.381 32.604 393.173 32.572C392.973 32.532 392.769 32.512 392.561 32.512C392.121 32.512 391.725 32.588 391.373 32.74C391.021 32.892 390.721 33.112 390.473 33.4C390.225 33.688 390.033 34.04 389.897 34.456C389.769 34.864 389.705 35.324 389.705 35.836C389.705 36.332 389.761 36.784 389.873 37.192C389.993 37.6 390.169 37.952 390.401 38.248C390.633 38.536 390.921 38.76 391.265 38.92C391.617 39.08 392.025 39.16 392.489 39.16C393.025 39.16 393.469 39.104 393.821 38.992C394.173 38.88 394.437 38.78 394.613 38.692L394.913 39.652C394.857 39.692 394.757 39.744 394.613 39.808C394.469 39.864 394.289 39.92 394.073 39.976C393.857 40.032 393.605 40.08 393.317 40.12C393.029 40.16 392.717 40.18 392.381 40.18ZM402.403 31.684C402.155 31.956 401.875 32.26 401.563 32.596C401.251 32.924 400.923 33.264 400.579 33.616C400.243 33.96 399.907 34.3 399.571 34.636C399.235 34.972 398.919 35.284 398.623 35.572C398.967 35.812 399.331 36.108 399.715 36.46C400.099 36.812 400.475 37.188 400.843 37.588C401.211 37.988 401.555 38.396 401.875 38.812C402.203 39.228 402.475 39.624 402.691 40H401.323C401.083 39.624 400.807 39.248 400.495 38.872C400.183 38.488 399.851 38.124 399.499 37.78C399.155 37.428 398.803 37.104 398.443 36.808C398.091 36.512 397.747 36.26 397.411 36.052V40H396.247V31.684H397.411V35.356C397.691 35.092 397.999 34.796 398.335 34.468C398.671 34.132 399.003 33.796 399.331 33.46C399.659 33.124 399.967 32.804 400.255 32.5C400.551 32.188 400.799 31.916 400.999 31.684H402.403ZM409.76 40C409.624 39.64 409.496 39.288 409.376 38.944C409.256 38.592 409.132 38.236 409.004 37.876H405.236L404.48 40H403.268C403.588 39.12 403.888 38.308 404.168 37.564C404.448 36.812 404.72 36.1 404.984 35.428C405.256 34.756 405.524 34.116 405.788 33.508C406.052 32.892 406.328 32.284 406.616 31.684H407.684C407.972 32.284 408.248 32.892 408.512 33.508C408.776 34.116 409.04 34.756 409.304 35.428C409.576 36.1 409.852 36.812 410.132 37.564C410.412 38.308 410.712 39.12 411.032 40H409.76ZM408.668 36.916C408.412 36.22 408.156 35.548 407.9 34.9C407.652 34.244 407.392 33.616 407.12 33.016C406.84 33.616 406.572 34.244 406.316 34.9C406.068 35.548 405.82 36.22 405.572 36.916H408.668ZM415.576 32.62C415.272 32.62 414.98 32.644 414.7 32.692C414.428 32.74 414.184 32.824 413.968 32.944C413.752 33.064 413.58 33.228 413.452 33.436C413.324 33.644 413.26 33.904 413.26 34.216C413.26 34.808 413.448 35.22 413.824 35.452C414.208 35.676 414.78 35.788 415.54 35.788H416.74V32.656C416.652 32.656 416.548 32.652 416.428 32.644C416.324 32.636 416.2 32.632 416.056 32.632C415.92 32.624 415.76 32.62 415.576 32.62ZM415.672 31.6C415.84 31.6 416.02 31.604 416.212 31.612C416.404 31.62 416.596 31.632 416.788 31.648C416.988 31.664 417.184 31.684 417.376 31.708C417.568 31.732 417.744 31.764 417.904 31.804V40H416.74V36.748H415.744C415.632 36.748 415.512 36.748 415.384 36.748C415.264 36.74 415.1 36.724 414.892 36.7C414.748 36.892 414.592 37.116 414.424 37.372C414.256 37.628 414.088 37.9 413.92 38.188C413.752 38.476 413.584 38.776 413.416 39.088C413.256 39.4 413.108 39.704 412.972 40H411.748C411.876 39.688 412.028 39.364 412.204 39.028C412.38 38.692 412.56 38.372 412.744 38.068C412.936 37.764 413.116 37.484 413.284 37.228C413.46 36.964 413.612 36.748 413.74 36.58C413.556 36.524 413.364 36.444 413.164 36.34C412.964 36.236 412.78 36.092 412.612 35.908C412.444 35.724 412.304 35.496 412.192 35.224C412.088 34.944 412.036 34.612 412.036 34.228C412.036 33.796 412.12 33.416 412.288 33.088C412.456 32.76 412.696 32.488 413.008 32.272C413.328 32.048 413.712 31.88 414.16 31.768C414.608 31.656 415.112 31.6 415.672 31.6ZM259.188 50.684C258.94 50.956 258.66 51.26 258.348 51.596C258.036 51.924 257.708 52.264 257.364 52.616C257.028 52.96 256.692 53.3 256.356 53.636C256.02 53.972 255.704 54.284 255.408 54.572C255.752 54.812 256.116 55.108 256.5 55.46C256.884 55.812 257.26 56.188 257.628 56.588C257.996 56.988 258.34 57.396 258.66 57.812C258.988 58.228 259.26 58.624 259.476 59H258.108C257.868 58.624 257.592 58.248 257.28 57.872C256.968 57.488 256.636 57.124 256.284 56.78C255.94 56.428 255.588 56.104 255.228 55.808C254.876 55.512 254.532 55.26 254.196 55.052V59H253.032V50.684H254.196V54.356C254.476 54.092 254.784 53.796 255.12 53.468C255.456 53.132 255.788 52.796 256.116 52.46C256.444 52.124 256.752 51.804 257.04 51.5C257.336 51.188 257.584 50.916 257.784 50.684H259.188ZM259.821 54.836C259.821 54.124 259.925 53.496 260.133 52.952C260.349 52.408 260.637 51.956 260.997 51.596C261.365 51.228 261.789 50.952 262.269 50.768C262.757 50.584 263.273 50.492 263.817 50.492C264.353 50.492 264.857 50.584 265.329 50.768C265.809 50.952 266.229 51.228 266.589 51.596C266.949 51.956 267.233 52.408 267.441 52.952C267.657 53.496 267.765 54.124 267.765 54.836C267.765 55.548 267.657 56.176 267.441 56.72C267.233 57.264 266.949 57.72 266.589 58.088C266.229 58.448 265.809 58.72 265.329 58.904C264.857 59.088 264.353 59.18 263.817 59.18C263.273 59.18 262.757 59.088 262.269 58.904C261.789 58.72 261.365 58.448 260.997 58.088C260.637 57.72 260.349 57.264 260.133 56.72C259.925 56.176 259.821 55.548 259.821 54.836ZM261.045 54.836C261.045 55.34 261.109 55.8 261.237 56.216C261.365 56.624 261.545 56.972 261.777 57.26C262.017 57.548 262.305 57.772 262.641 57.932C262.985 58.084 263.369 58.16 263.793 58.16C264.217 58.16 264.597 58.084 264.933 57.932C265.269 57.772 265.553 57.548 265.785 57.26C266.025 56.972 266.209 56.624 266.337 56.216C266.465 55.8 266.529 55.34 266.529 54.836C266.529 54.332 266.465 53.876 266.337 53.468C266.209 53.052 266.025 52.7 265.785 52.412C265.553 52.124 265.269 51.904 264.933 51.752C264.597 51.592 264.217 51.512 263.793 51.512C263.369 51.512 262.985 51.592 262.641 51.752C262.305 51.904 262.017 52.124 261.777 52.412C261.545 52.7 261.365 53.052 261.237 53.468C261.109 53.876 261.045 54.332 261.045 54.836ZM273.229 57.848C273.149 57.656 273.041 57.412 272.905 57.116C272.777 56.82 272.637 56.5 272.485 56.156C272.333 55.812 272.169 55.46 271.993 55.1C271.825 54.732 271.665 54.388 271.513 54.068C271.361 53.74 271.217 53.448 271.081 53.192C270.953 52.936 270.849 52.74 270.769 52.604C270.681 53.548 270.609 54.572 270.553 55.676C270.497 56.772 270.449 57.88 270.409 59H269.269C269.301 58.28 269.337 57.556 269.377 56.828C269.417 56.092 269.461 55.372 269.509 54.668C269.565 53.956 269.621 53.264 269.677 52.592C269.741 51.92 269.809 51.284 269.881 50.684H270.901C271.117 51.036 271.349 51.452 271.597 51.932C271.845 52.412 272.093 52.916 272.341 53.444C272.589 53.964 272.829 54.488 273.061 55.016C273.293 55.536 273.505 56.012 273.697 56.444C273.889 56.012 274.101 55.536 274.333 55.016C274.565 54.488 274.805 53.964 275.053 53.444C275.301 52.916 275.549 52.412 275.797 51.932C276.045 51.452 276.277 51.036 276.493 50.684H277.513C277.785 53.364 277.989 56.136 278.125 59H276.985C276.945 57.88 276.897 56.772 276.841 55.676C276.785 54.572 276.713 53.548 276.625 52.604C276.545 52.74 276.437 52.936 276.301 53.192C276.173 53.448 276.033 53.74 275.881 54.068C275.729 54.388 275.565 54.732 275.389 55.1C275.221 55.46 275.061 55.812 274.909 56.156C274.757 56.5 274.613 56.82 274.477 57.116C274.349 57.412 274.245 57.656 274.165 57.848H273.229ZM286.274 50.684V59H285.11V51.68H281.114V59H279.95V50.684H286.274ZM293.897 59C293.761 58.64 293.633 58.288 293.513 57.944C293.393 57.592 293.269 57.236 293.141 56.876H289.373L288.617 59H287.405C287.725 58.12 288.025 57.308 288.305 56.564C288.585 55.812 288.857 55.1 289.121 54.428C289.393 53.756 289.661 53.116 289.925 52.508C290.189 51.892 290.465 51.284 290.753 50.684H291.821C292.109 51.284 292.385 51.892 292.649 52.508C292.913 53.116 293.177 53.756 293.441 54.428C293.713 55.1 293.989 55.812 294.269 56.564C294.549 57.308 294.849 58.12 295.169 59H293.897ZM292.805 55.916C292.549 55.22 292.293 54.548 292.037 53.9C291.789 53.244 291.529 52.616 291.257 52.016C290.977 52.616 290.709 53.244 290.453 53.9C290.205 54.548 289.957 55.22 289.709 55.916H292.805ZM301.53 50.684H302.694V59H301.53V55.16H297.462V59H296.298V50.684H297.462V54.152H301.53V50.684ZM304.759 59V50.684H305.899V56.84C306.155 56.416 306.467 55.932 306.835 55.388C307.211 54.844 307.607 54.292 308.023 53.732C308.447 53.164 308.871 52.616 309.295 52.088C309.727 51.552 310.131 51.084 310.507 50.684H311.431V59H310.291V52.508C310.067 52.764 309.823 53.06 309.559 53.396C309.295 53.732 309.023 54.092 308.743 54.476C308.463 54.852 308.179 55.244 307.891 55.652C307.611 56.06 307.339 56.464 307.075 56.864C306.811 57.256 306.563 57.636 306.331 58.004C306.107 58.372 305.907 58.704 305.731 59H304.759ZM316.717 51.62C316.413 51.62 316.121 51.644 315.841 51.692C315.569 51.74 315.325 51.824 315.109 51.944C314.893 52.064 314.721 52.228 314.593 52.436C314.465 52.644 314.401 52.904 314.401 53.216C314.401 53.808 314.589 54.22 314.965 54.452C315.349 54.676 315.921 54.788 316.681 54.788H317.881V51.656C317.793 51.656 317.689 51.652 317.569 51.644C317.465 51.636 317.341 51.632 317.197 51.632C317.061 51.624 316.901 51.62 316.717 51.62ZM316.813 50.6C316.981 50.6 317.161 50.604 317.353 50.612C317.545 50.62 317.737 50.632 317.929 50.648C318.129 50.664 318.325 50.684 318.517 50.708C318.709 50.732 318.885 50.764 319.045 50.804V59H317.881V55.748H316.885C316.773 55.748 316.653 55.748 316.525 55.748C316.405 55.74 316.241 55.724 316.033 55.7C315.889 55.892 315.733 56.116 315.565 56.372C315.397 56.628 315.229 56.9 315.061 57.188C314.893 57.476 314.725 57.776 314.557 58.088C314.397 58.4 314.249 58.704 314.113 59H312.889C313.017 58.688 313.169 58.364 313.345 58.028C313.521 57.692 313.701 57.372 313.885 57.068C314.077 56.764 314.257 56.484 314.425 56.228C314.601 55.964 314.753 55.748 314.881 55.58C314.697 55.524 314.505 55.444 314.305 55.34C314.105 55.236 313.921 55.092 313.753 54.908C313.585 54.724 313.445 54.496 313.333 54.224C313.229 53.944 313.177 53.612 313.177 53.228C313.177 52.796 313.261 52.416 313.429 52.088C313.597 51.76 313.837 51.488 314.149 51.272C314.469 51.048 314.853 50.88 315.301 50.768C315.749 50.656 316.253 50.6 316.813 50.6Z" fill="#1C242E"/>
<path d="M237 60V11H235V60H237Z" fill="#FF7C00" mask="url(#path-8-inside-1_36_206)"/>
<defs>
<clipPath id="clip0_36_206">
<rect width="77" height="71" fill="white"/>
</clipPath>
<clipPath id="clip1_36_206">
<rect width="130" height="22" fill="white" transform="translate(92 12)"/>
</clipPath>
<clipPath id="clip2_36_206">
<rect width="129" height="20" fill="white" transform="translate(92 40)"/>
</clipPath>
</defs>
</svg>
