<svg width="74" height="21" viewBox="0 0 74 21" fill="none" xmlns="http://www.w3.org/2000/svg">
<g clip-path="url(#clip0_42_156)">
<rect x="0.286133" width="19.9999" height="19.9999" rx="5.71425" fill="#622BFF"/>
<path fill-rule="evenodd" clip-rule="evenodd" d="M8.85734 7.43451C8.85734 5.95864 10.0538 4.76221 11.5296 4.76221H12.6668V6.66696H11.5296C11.1057 6.66696 10.7621 7.0106 10.7621 7.43451C10.7621 8.44452 10.323 9.36606 9.61202 10.0003C10.323 10.6345 10.7621 11.556 10.7621 12.566C10.7621 12.9899 11.1057 13.3336 11.5296 13.3336H12.6668V15.2383H11.5296C10.0538 15.2383 8.85734 14.0419 8.85734 12.566C8.85734 11.8212 8.32166 11.1843 7.58787 11.0567L6.95264 10.9462V9.05429L7.58787 8.94382C8.32166 8.8162 8.85734 8.17932 8.85734 7.43451Z" fill="white"/>
</g>
<path d="M26.582 12.3701V12.5279C26.582 13.5868 27.0622 14.4319 28.0224 15.0633C28.9892 15.6946 30.321 16.0103 32.0178 16.0103C33.7212 16.0103 35.0332 15.6946 35.954 15.0633C36.8747 14.4253 37.3351 13.6065 37.3351 12.6068C37.3351 11.7321 36.9767 11.035 36.2598 10.5154C35.5429 9.98925 34.4676 9.61766 33.0339 9.40062C31.6067 9.18359 30.6827 8.98957 30.2618 8.81858C29.8409 8.64758 29.6304 8.40753 29.6304 8.09842C29.6304 7.78273 29.8277 7.5361 30.2223 7.35852C30.6169 7.17437 31.2417 7.0823 32.0967 7.0823C32.9451 7.0823 33.5831 7.20068 34.0105 7.43745C34.438 7.67421 34.6518 8.01292 34.6518 8.45356V8.68046H37.197V8.43383C37.197 7.4802 36.7366 6.67454 35.8159 6.01686C34.8951 5.35918 33.6554 5.03034 32.0967 5.03034C30.538 5.03034 29.3114 5.33616 28.417 5.9478C27.5225 6.55287 27.0753 7.32564 27.0753 8.26612C27.0753 9.07507 27.414 9.74919 28.0914 10.2885C28.7688 10.8212 29.8244 11.1961 31.2582 11.4131C32.6853 11.6302 33.6225 11.8176 34.0697 11.9754C34.5235 12.1333 34.7504 12.3996 34.7504 12.7745C34.7504 13.1494 34.5203 13.4421 34.0599 13.6525C33.5995 13.863 32.9188 13.9682 32.0178 13.9682C31.1233 13.9682 30.4196 13.8663 29.9066 13.6624C29.3936 13.4585 29.1371 13.1165 29.1371 12.6364V12.3701H26.582ZM39.2983 15.7144H41.8633V9.27237C42.1921 8.71992 42.6262 8.26612 43.1655 7.91098C43.7048 7.55583 44.3032 7.37826 44.9609 7.37826C45.737 7.37826 46.3618 7.592 46.8353 8.01949C47.3088 8.44041 47.5522 9.14413 47.5653 10.1306V15.7144H50.1204V9.27237C50.4427 8.71992 50.8899 8.26612 51.4621 7.91098C52.0343 7.55583 52.6525 7.37826 53.3168 7.37826C54.0862 7.37826 54.6913 7.592 55.132 8.01949C55.5792 8.44041 55.8094 9.14084 55.8225 10.1208V15.7144H58.3875V10.1701C58.3875 8.36149 57.9896 7.06915 57.1938 6.29308C56.4046 5.51702 55.3917 5.12899 54.1553 5.12899C53.2609 5.12899 52.396 5.30327 51.5608 5.65184C50.7255 5.99384 50.0678 6.50683 49.5877 7.19082H49.5778C49.2753 6.51998 48.7919 6.01028 48.1277 5.66171C47.4634 5.30656 46.7071 5.12899 45.8587 5.12899C45.0629 5.12899 44.3098 5.2671 43.5995 5.54333C42.8958 5.81955 42.3039 6.26677 41.8238 6.88499H41.8041L41.7153 5.33616H39.2983V15.7144ZM60.765 18.3878C61.3503 18.8877 62.1132 19.2823 63.0537 19.5717C64.0008 19.8676 64.9939 20.0156 66.033 20.0156C67.7298 20.0156 69.1669 19.5848 70.3441 18.7232C71.5214 17.8683 72.11 16.6351 72.11 15.0238V5.33616H69.693L69.6042 6.69756H69.5845C69.2688 6.24376 68.7525 5.87217 68.0356 5.58279C67.3188 5.28683 66.5197 5.13885 65.6384 5.13885C64.0337 5.13885 62.7282 5.62882 61.7219 6.60877C60.7222 7.58871 60.2224 8.84159 60.2224 10.3674V10.6831C60.2224 12.2023 60.7222 13.4552 61.7219 14.4417C62.7216 15.4217 64.0238 15.9117 65.6285 15.9117C66.5164 15.9117 67.299 15.7867 67.9765 15.5368C68.6539 15.2869 69.18 14.935 69.5549 14.4812V15.0337C69.5549 15.9215 69.2063 16.6055 68.5092 17.0856C67.812 17.5723 66.9571 17.8156 65.9442 17.8156C65.0958 17.8156 64.3165 17.6907 63.6062 17.4408C62.9025 17.1974 62.3664 16.9048 61.9981 16.5628L60.765 18.3878ZM62.8466 10.7028V10.3378C62.8466 9.48941 63.1425 8.7824 63.7344 8.2168C64.3329 7.65119 65.2142 7.36839 66.3783 7.36839C67.1149 7.36839 67.766 7.51637 68.3316 7.81232C68.8972 8.1017 69.305 8.52262 69.5549 9.07507V11.9754C69.3181 12.4292 68.9137 12.8271 68.3415 13.1691C67.7759 13.5111 67.1215 13.6821 66.3783 13.6821C65.2208 13.6821 64.3428 13.3993 63.7443 12.8337C63.1458 12.2615 62.8466 11.5512 62.8466 10.7028Z" fill="#212121"/>
<defs>
<clipPath id="clip0_42_156">
<rect width="19.9999" height="19.9999" fill="white" transform="translate(0.286133)"/>
</clipPath>
</defs>
</svg>
